<?xml version="1.0" encoding="utf-8"?>
<!-- Generator: Adobe Illustrator 21.0.0, SVG Export Plug-In . SVG Version: 6.00 Build 0)  -->
<svg version="1.1" id="Layer_1" xmlns="http://www.w3.org/2000/svg" xmlns:xlink="http://www.w3.org/1999/xlink" x="0px" y="0px"
	 viewBox="0 0 512 512" style="enable-background:new 0 0 512 512;" xml:space="preserve">
<style type="text/css">
	.st0{fill:#5D9CEC;}
	.st1{opacity:0.2;fill:#FFFFFF;enable-background:new    ;}
	.st2{fill:#4A89DC;}
	.st3{fill:#E6E9ED;}
	.st4{fill:#CCD1D9;}
	.st5{fill:#434A54;}
</style>
<path class="st0" d="M341.3,139.2H170.7c-5.9,0-10.7,4.8-10.7,10.7V480c0,17.2,24.9,23.4,33.1,25.4c16.9,4.2,39.3,6.6,62.9,6.6
	c23.6,0,46-2.3,62.9-6.6c8.2-2,33.1-8.3,33.1-25.4V149.9C352,144,347.2,139.2,341.3,139.2z"/>
<path class="st1" d="M341.3,139.2h-10.7c5.9,0,10.7,4.8,10.7,10.7V480c0,17.2-24.9,23.4-33.1,25.4c-15.7,3.9-35.9,6.2-57.6,6.5
	c1.8,0,3.5,0,5.3,0c23.6,0,46-2.3,62.9-6.6c8.2-2,33.1-8.3,33.1-25.4V149.9C352,144,347.2,139.2,341.3,139.2z"/>
<path class="st2" d="M318.9,124.4c-16.9-4.2-39.3-6.6-62.9-6.6c-23.6,0-46,2.3-62.9,6.6c-8.2,2-33.1,8.3-33.1,25.4
	c0,17.2,24.9,23.4,33.1,25.4c17,4.2,39.3,6.6,62.9,6.6c23.6,0,46-2.3,62.9-6.6c8.2-2,33.1-8.3,33.1-25.4
	C352,132.7,327.1,126.5,318.9,124.4z"/>
<path class="st3" d="M255.9,181.9C255.8,181.9,255.8,181.9,255.9,181.9c-5.9,0-10.7-4.8-10.7-10.7L245.3,32
	c0-5.9,4.8-10.7,10.7-10.7c5.9,0,10.7,4.8,10.7,10.7l-0.1,139.2C266.5,177.1,261.7,181.9,255.9,181.9z"/>
<g>
	<path class="st4" d="M170.7,149.9c-2.2,0-4.4-0.7-6.3-2c-4.8-3.5-5.8-10.1-2.4-14.9l85.3-117.9c3.5-4.8,10.1-5.8,14.9-2.4
		c4.8,3.5,5.8,10.1,2.4,14.9l-85.3,117.9C177.2,148.3,174,149.9,170.7,149.9z"/>
	<path class="st4" d="M341.3,149.9c-3.3,0-6.6-1.5-8.7-4.4L247.4,27.6c-3.5-4.8-2.4-11.4,2.4-14.9c4.8-3.5,11.5-2.4,14.9,2.4
		L350,132.9c3.5,4.8,2.4,11.5-2.4,14.9C345.7,149.2,343.5,149.9,341.3,149.9z"/>
</g>
<path class="st5" d="M213.3,0v10.7c0,23.5,19.1,42.7,42.7,42.7c23.5,0,42.7-19.1,42.7-42.7V0H213.3z"/>
<path class="st3" d="M309.3,330.6c0,26.5-23.9,48.1-53.3,48.1c-29.5,0-53.3-21.5-53.3-48.1s23.9-48.1,53.3-48.1
	C285.5,282.6,309.3,304.1,309.3,330.6z"/>
<path class="st4" d="M256,389.4c-35.3,0-64-26.4-64-58.7c0-32.4,28.7-58.7,64-58.7c35.3,0,64,26.4,64,58.7
	C320,363,291.3,389.4,256,389.4z M256,293.3c-23.5,0-42.7,16.8-42.7,37.4s19.1,37.4,42.7,37.4c23.5,0,42.7-16.8,42.7-37.4
	S279.5,293.3,256,293.3z"/>
<path class="st5" d="M277.3,341.6h-42.7c-5.9,0-10.7-4.8-10.7-10.7s4.8-10.7,10.7-10.7h42.7c5.9,0,10.7,4.8,10.7,10.7
	S283.2,341.6,277.3,341.6z"/>
</svg>
